# xmcd
#
# Track frame offsets:
#	150
#	15500
#	30264
#	42791
#	58697
#	74905
#	91282
#	106720
#	120828
#	137195
#	152043
#	169603
#	186824
#	202088
#	215672
#	230335
#
# Disc length: 3273 seconds
#
# Revision: 0
# Processed by: cddbd v1.5.2PL0 Copyright (c) Steve Scherf et al.
# Submitted via: EasyCDDAExtractor 11.9.9.666
#
DISCID=d40cc710
DTITLE=Léo and Júnior - Acústico
DYEAR=1900
DGENRE=
TTITLE0=Vôo 777
TTITLE1=Se Entrega Amor
TTITLE2=Por favor reza pra Nóis
TTITLE3=Por Toda Vida
TTITLE4=Cigana (Vou te amar)
TTITLE5=O Mundo Parou
TTITLE6=Do outro lado da Cidade/Duas Camisas
TTITLE7=Uma vez por Mês
TTITLE8=Eu quero ser Seu Homem
TTITLE9=Pra lá de Bagdá
TTITLE10=Até mais Ver/Fandango
TTITLE11=Somos Apenas Um
TTITLE12=Não
TTITLE13=Chamada a Cobrar
TTITLE14=Casei com a Tia
TTITLE15=Alegrando o Brasil
EXTD=
EXTT0=
EXTT1=
EXTT2=
EXTT3=
EXTT4=
EXTT5=
EXTT6=
EXTT7=
EXTT8=
EXTT9=
EXTT10=
EXTT11=
EXTT12=
EXTT13=
EXTT14=
EXTT15=
PLAYORDER=
